<svg width="44" height="44" viewBox="0 0 44 44" fill="none" xmlns="http://www.w3.org/2000/svg">
<path d="M31.75 13.1181C31.7441 12.5014 31.4953 11.9119 31.0576 11.4773C30.6199 11.0428 30.0286 10.7983 29.4119 10.7969L14.5769 10.75C13.9608 10.7501 13.3698 10.9945 12.9336 11.4297C12.4975 11.8648 12.2516 12.4551 12.25 13.0712V28.375C12.25 29.6547 13.2944 30.625 14.5769 30.625H27.25L26.6406 28.5625L31.75 33.25V13.1181ZM25.218 25.4598C25.218 25.4598 24.8092 24.9728 24.468 24.5542C25.9558 24.1352 26.5234 23.2188 26.5234 23.2188C26.1148 23.4898 25.6769 23.7139 25.218 23.8867C24.6881 24.1067 24.1364 24.27 23.5722 24.3738C22.6 24.5523 21.603 24.5485 20.6322 24.3625C20.0611 24.2564 19.5022 24.0931 18.9639 23.875C18.6791 23.7659 18.4022 23.6373 18.1352 23.4902C18.1009 23.4677 18.0672 23.4564 18.033 23.4334C18.01 23.4222 17.9987 23.4109 17.9861 23.4109C17.7817 23.2975 17.6683 23.2183 17.6683 23.2183C17.6683 23.2183 18.213 24.1131 19.6548 24.543C19.3141 24.9733 18.8941 25.4716 18.8941 25.4716C16.3858 25.3923 15.4323 23.762 15.4323 23.762C15.4323 20.1498 17.0669 17.2173 17.0669 17.2173C18.7014 16.0056 20.245 16.0398 20.245 16.0398L20.3584 16.1758C18.3152 16.7533 17.3847 17.6477 17.3847 17.6477C17.3847 17.6477 17.6341 17.5117 18.0541 17.3303C19.2686 16.7983 20.2338 16.6623 20.6322 16.6173C20.6958 16.6041 20.7604 16.5964 20.8253 16.5944C21.5859 16.4957 22.3556 16.4881 23.118 16.5719C24.315 16.7094 25.4748 17.0745 26.5347 17.6477C26.5347 17.6477 25.638 16.7969 23.7081 16.2203L23.867 16.0394C23.867 16.0394 25.4219 16.0052 27.0456 17.2188C27.0456 17.2188 28.6802 20.1512 28.6802 23.7634C28.6802 23.7503 27.7262 25.3806 25.218 25.4598Z" fill="black"/>
<path d="M19.9398 20.2188C19.2929 20.2188 18.782 20.7738 18.782 21.4642C18.782 22.1547 19.3042 22.7097 19.9398 22.7097C20.5867 22.7097 21.0976 22.1552 21.0976 21.4642C21.1093 20.7723 20.5867 20.2188 19.9398 20.2188ZM24.0826 20.2188C23.4357 20.2188 22.9248 20.7738 22.9248 21.4642C22.9248 22.1547 23.447 22.7097 24.0826 22.7097C24.73 22.7097 25.2404 22.1552 25.2404 21.4642C25.2404 20.7733 24.7187 20.2188 24.0826 20.2188Z" fill="black"/>
</svg>
