<svg width="44" height="44" viewBox="0 0 44 44" fill="none" xmlns="http://www.w3.org/2000/svg">
<path d="M28.2856 17.4233C29.1061 17.4233 29.7712 16.7582 29.7712 15.9377C29.7712 15.1173 29.1061 14.4521 28.2856 14.4521C27.4652 14.4521 26.8 15.1173 26.8 15.9377C26.8 16.7582 27.4652 17.4233 28.2856 17.4233Z" fill="black"/>
<path d="M33.364 14.1328C33.0552 13.3375 32.5838 12.6154 31.9801 12.0127C31.3763 11.41 30.6534 10.9398 29.8576 10.6324C28.9242 10.2826 27.9382 10.0935 26.9416 10.0732C25.66 10.0168 25.2556 10 21.9988 10C18.7444 10 18.3304 10 17.0548 10.072C16.0585 10.0932 15.0729 10.2831 14.14 10.6336C13.3443 10.9409 12.6215 11.4108 12.0177 12.0134C11.414 12.6159 10.9425 13.3377 10.6336 14.1328C10.2827 15.0644 10.0928 16.0488 10.072 17.044C10.0168 18.3232 10 18.7288 10 21.9784C10 25.228 10 25.642 10.072 26.914C10.0936 27.9088 10.2832 28.8928 10.6336 29.824C10.9424 30.6193 11.4138 31.3414 12.0175 31.9441C12.6213 32.5468 13.3442 33.017 14.14 33.3244C15.0706 33.6881 16.0562 33.8909 17.0548 33.9244C18.3376 33.9808 18.7432 33.9964 21.9988 33.9964C25.2544 33.9964 25.6684 33.9964 26.9428 33.9244C27.939 33.904 28.9246 33.7149 29.8576 33.3652C30.6535 33.0576 31.3765 32.5873 31.9803 31.9844C32.584 31.3814 33.0553 30.6591 33.364 29.8636C33.7143 28.9328 33.9039 27.9492 33.9244 26.9548C33.9808 25.6744 33.9964 25.2688 33.9964 22.0192C33.9964 18.7696 33.9964 18.3556 33.9244 17.0836C33.9085 16.0751 33.7189 15.0769 33.364 14.1328ZM31.6396 26.7772C31.6326 27.5325 31.4945 28.2808 31.2316 28.9888C31.035 29.4988 30.7337 29.9619 30.3472 30.3484C29.9607 30.7349 29.4976 31.0362 28.9876 31.2328C28.2863 31.493 27.5456 31.631 26.7976 31.6408C25.5496 31.696 25.1992 31.7128 22.0024 31.7128C18.8056 31.7128 18.478 31.7128 17.2084 31.6408C16.4604 31.631 15.7197 31.493 15.0184 31.2328C14.5064 31.0377 14.0411 30.7372 13.6529 30.3505C13.2646 29.9639 12.962 29.5 12.7648 28.9888C12.5046 28.2883 12.3666 27.5484 12.3568 26.8012C12.3016 25.5556 12.2848 25.2052 12.2848 22.0108C12.2848 18.8164 12.2848 18.49 12.3568 17.2204C12.364 16.4644 12.502 15.7168 12.7648 15.0076C12.962 14.4964 13.2646 14.0325 13.6529 13.6459C14.0411 13.2593 14.5064 12.9587 15.0184 12.7636C15.7198 12.5038 16.4605 12.3662 17.2084 12.3568C18.454 12.3016 18.8056 12.2848 22.0024 12.2848C25.1992 12.2848 25.5268 12.2848 26.7976 12.3568C27.5452 12.3664 28.2856 12.5044 28.9864 12.7648C30.0184 13.162 30.8344 13.9768 31.2328 15.0088C31.492 15.7084 31.63 16.4488 31.6408 17.1964C31.696 18.442 31.7128 18.7924 31.7128 21.9868C31.7128 25.18 31.7128 25.5244 31.6564 26.7772H31.6396Z" fill="black"/>
<path d="M21.9892 27.7035C20.4738 27.7035 19.0205 27.1015 17.9489 26.0299C16.8774 24.9584 16.2754 23.5051 16.2754 21.9897C16.2754 20.4743 16.8774 19.021 17.9489 17.9494C19.0205 16.8779 20.4738 16.2759 21.9892 16.2759C23.5046 16.2759 24.9579 16.8779 26.0295 17.9494C27.101 19.021 27.703 20.4743 27.703 21.9897C27.703 23.5051 27.101 24.9584 26.0295 26.0299C24.9579 27.1015 23.5046 27.7035 21.9892 27.7035ZM21.9892 25.4175C22.4447 25.426 22.8974 25.3436 23.3207 25.1752C23.7441 25.0068 24.1296 24.7556 24.4548 24.4365C24.78 24.1174 25.0383 23.7366 25.2146 23.3165C25.3909 22.8964 25.4817 22.4453 25.4817 21.9897C25.4817 21.5341 25.3909 21.083 25.2146 20.6629C25.0383 20.2428 24.78 19.862 24.4548 19.5429C24.1296 19.2237 23.7441 18.9726 23.3207 18.8042C22.8974 18.6357 22.4447 18.5534 21.9892 18.5619C21.0912 18.5787 20.2356 18.9472 19.6065 19.5882C18.9774 20.2292 18.6249 21.0915 18.6249 21.9897C18.6249 22.8878 18.9774 23.7501 19.6065 24.3911C20.2356 25.0321 21.0912 25.4007 21.9892 25.4175Z" fill="black"/>
</svg>
