<svg width="44" height="44" viewBox="0 0 44 44" fill="none" xmlns="http://www.w3.org/2000/svg">
<path d="M19.522 25.135L19.5215 18.344L26.0055 21.751L19.522 25.135ZM33.76 17.167C33.76 17.167 33.525 15.502 32.806 14.768C31.8935 13.805 30.87 13.8005 30.4015 13.745C27.043 13.5 22.005 13.5 22.005 13.5H21.995C21.995 13.5 16.957 13.5 13.5985 13.745C13.129 13.8 12.1065 13.805 11.1935 14.7675C10.4735 15.5015 10.24 17.167 10.24 17.167C10.24 17.167 10 19.1235 10 21.079V22.913C10 24.869 10.24 26.8245 10.24 26.8245C10.24 26.8245 10.474 28.49 11.193 29.2235C12.1065 30.1865 13.306 30.1565 13.84 30.257C15.76 30.4425 22 30.5 22 30.5C22 30.5 27.043 30.4925 30.4015 30.2475C30.8705 30.191 31.8935 30.1865 32.806 29.2235C33.5255 28.49 33.76 26.8245 33.76 26.8245C33.76 26.8245 34 24.8695 34 22.913V21.079C34 19.1235 33.76 17.167 33.76 17.167Z" fill="black"/>
</svg>
