<svg width="17" height="20" viewBox="0 0 17 20" fill="none" xmlns="http://www.w3.org/2000/svg">
<g id="Apple">
<path id="Vector" d="M4.35698 19.6144C3.96305 19.3512 3.61325 19.0289 3.32092 18.6566C3.00194 18.271 2.70628 17.8654 2.43477 17.4457C1.79681 16.5129 1.29793 15.4926 0.952302 14.4174C0.535878 13.1665 0.333496 11.9689 0.333496 10.797C0.333496 9.48947 0.616664 8.34846 1.16801 7.39069C1.5761 6.64113 2.18408 6.01399 2.91699 5.57342C3.62491 5.13201 4.44943 4.89048 5.28228 4.87382C5.57377 4.87382 5.89025 4.91547 6.22339 4.99875C6.46492 5.06538 6.75642 5.17365 7.11454 5.3069C7.57261 5.4818 7.82246 5.59007 7.90575 5.61506C8.17226 5.715 8.39713 5.75664 8.57202 5.75664C8.70528 5.75664 8.89683 5.715 9.10921 5.64837C9.22997 5.60673 9.45901 5.53177 9.78382 5.39019C10.1053 5.27359 10.3601 5.17365 10.5625 5.09869C10.8707 5.00708 11.1688 4.92379 11.437 4.88215C11.7618 4.83218 12.0841 4.81552 12.3931 4.84051C12.9844 4.88215 13.5258 5.00708 14.0089 5.19031C14.8584 5.53177 15.5438 6.0648 16.0552 6.82269C15.8386 6.95594 15.6387 7.11085 15.4513 7.28075C15.0457 7.63888 14.7018 8.06363 14.4269 8.53419C14.0688 9.17548 13.8856 9.90006 13.8906 10.633C13.9031 11.5349 14.1321 12.3278 14.5902 13.0149C14.9125 13.5146 15.3431 13.9427 15.8678 14.2942C16.1259 14.4691 16.3525 14.5898 16.5674 14.6689C16.4674 14.9813 16.3575 15.2853 16.2301 15.5851C15.9411 16.2572 15.5971 16.901 15.189 17.509C14.8292 18.0336 14.546 18.4251 14.3312 18.6833C13.9964 19.083 13.6732 19.3829 13.3484 19.5969C12.9903 19.8343 12.5697 19.96 12.1391 19.96C11.8476 19.9725 11.5561 19.935 11.2779 19.8543C11.0364 19.7751 10.7982 19.686 10.565 19.5852C10.321 19.4736 10.0686 19.3787 9.8113 19.3021C9.49482 19.2188 9.17001 19.1788 8.84187 19.1796C8.50873 19.1796 8.18392 19.2213 7.87576 19.3004C7.61758 19.3737 7.36773 19.4636 7.12037 19.5711C6.77057 19.7168 6.54154 19.8126 6.40829 19.8543C6.13844 19.9342 5.86194 19.9825 5.58377 20C5.15069 20 4.74759 19.8751 4.34615 19.6252L4.35698 19.6144ZM10.0653 4.24003C9.49898 4.5232 8.96096 4.64313 8.42211 4.60315C8.33883 4.06513 8.42211 3.51212 8.64698 2.90664C8.84686 2.39027 9.11337 1.92388 9.47983 1.50745C9.86294 1.07437 10.321 0.716249 10.8374 0.458066C11.387 0.174898 11.9117 0.0249854 12.4115 0C12.4781 0.566336 12.4115 1.12434 12.2032 1.72399C12.0133 2.25702 11.7302 2.7484 11.3704 3.18981C11.0081 3.62289 10.5584 3.98101 10.0495 4.23919L10.0653 4.24003Z" fill="#070707"/>
</g>
</svg>
