<svg width="25" height="24" viewBox="0 0 25 24" fill="none" xmlns="http://www.w3.org/2000/svg">
<g id="Google Pay" clip-path="url(#clip0_108_3874)">
<path id="Vector" d="M9.32748 12.2421H5.19648V13.7441H7.19848C7.03348 14.0891 6.79648 14.3901 6.50748 14.6341L6.50848 14.6351H6.50648C6.04948 15.0171 5.46248 15.2461 4.82048 15.2461C3.70648 15.2461 2.75548 14.5541 2.37248 13.5761C2.25548 13.2781 2.19148 12.9551 2.19148 12.6171C2.19148 12.0721 2.35748 11.5671 2.64048 11.1471L2.68948 11.0821C3.16548 10.4181 3.94048 9.98808 4.81948 9.98808C5.52148 9.98808 6.16048 10.2621 6.62948 10.7131L7.88348 9.31208C7.08148 8.56908 6.00348 8.11108 4.82048 8.11108C3.26548 8.11108 1.89448 8.90008 1.08348 10.0981C0.597477 10.8181 0.313477 11.6851 0.313477 12.6181C0.313477 13.3581 0.491477 14.0561 0.807477 14.6721C1.55448 16.1281 3.07048 17.1251 4.81948 17.1251C6.02048 17.1251 7.11148 16.6561 7.91948 15.8901L7.91848 15.8891C8.78548 15.0711 9.32648 13.9061 9.32648 12.6191V12.2421H9.32748ZM21.3785 15.3531L19.6055 10.6951H20.6825L21.8935 14.2401L23.3785 10.6951H24.3135C24.3135 10.6951 21.4135 17.5371 21.3895 17.5941L20.4545 17.6181C20.4715 17.5791 21.3785 15.3531 21.3785 15.3531ZM18.3455 13.5521C18.3455 14.1291 17.8375 14.5401 17.1655 14.5401C16.6375 14.5401 16.3005 14.2951 16.3005 13.9201C16.3005 13.5331 16.6245 13.3081 17.2435 13.2721L18.3485 13.1911L18.3455 13.5521ZM17.4285 10.6951C16.3755 10.6951 15.5965 11.2761 15.5675 12.0741H16.4615C16.5355 11.6941 16.8995 11.4461 17.3995 11.4461C18.0055 11.4461 18.3485 11.7181 18.3485 12.2211V12.5681L17.1085 12.6321C15.9575 12.6991 15.3335 13.1541 15.3335 13.9441C15.3335 14.7421 15.9765 15.2721 16.8985 15.2721C17.5215 15.2721 18.0995 14.9681 18.3615 14.4861H18.3815L18.3845 15.2721H19.2995V12.1581C19.3005 11.2681 18.5625 10.6951 17.4285 10.6951ZM12.8935 12.2201H11.6725V9.78008H12.8935C13.7645 9.78008 14.3235 10.1911 14.3235 11.0011C14.3235 11.8111 13.7685 12.2201 12.8935 12.2201ZM13.1855 8.86508H10.7575V15.2721H11.6725V13.1361H13.1515C14.4215 13.1361 15.3335 12.2501 15.3335 11.0001C15.3335 9.75008 14.4385 8.86508 13.1855 8.86508Z" fill="black"/>
</g>
<defs>
<clipPath id="clip0_108_3874">
<rect width="24" height="24" fill="white" transform="translate(0.333496)"/>
</clipPath>
</defs>
</svg>
